

    <svg xmlns:xlink="http://www.w3.org/1999/xlink">
       

        <symbol viewBox="0 0 512 512" id="twitch" xmlns="http://www.w3.org/2000/svg">
            <defs>
            	 <g id="ph">
                    <path d="m0 68.789062v383.210938h120v60h82.210938l60-60h151l98.789062-98.789062v-353.210938h-443.210938zm90-8.789062h362v233.210938l-68.789062 68.789062h-121l-81.210938 81.210938v-81.210938h-91zm0 0" />
                    <path d="m211 370.789062 38.789062-38.789062h121l51.210938-51.210938v-190.789062h-302v242h91zm121-205.789062h30v92h-30zm-91 0h30v92h-30zm0 0"/>
                </g>
            </defs>
            <use xlink:href="#ph" transform="translate(0 0 512 512)" /> 
        </symbol>

        <symbol viewBox="0 0 512 512" id="faceboock" xmlns="http://www.w3.org/2000/svg">
            <defs>
            	 <g id='fb'>
                    <path d="m437 0h-362c-41.351562 0-75 33.648438-75 75v362c0 41.351562 33.648438 75 75 75h151v-181h-60v-90h60v-61c0-49.628906 40.371094-90 90-90h91v90h-91v61h91l-15 90h-76v181h121c41.351562 0 75-33.648438 75-75v-362c0-41.351562-33.648438-75-75-75zm0 0" />
                </g>
            </defs>
            <use xlink:href="#fb" transform="translate(0 0 512 512)" /> 
        </symbol>

     	<symbol viewBox="0 0 94 94" id="vkontakt" xmlns="http://www.w3.org/2000/svg">
            <defs>
            	  <g id='vk'>
                    <g>
                        <path d="M89,0H5C2.238,0,0,2.239,0,5v84c0,2.761,2.238,5,5,5h84c2.762,0,5-2.239,5-5V5C94,2.239,91.762,0,89,0z M74.869,52.943
                        c2.562,2.5,5.271,4.854,7.572,7.617c1.018,1.22,1.978,2.48,2.709,3.899c1.041,2.024,0.101,4.247-1.713,4.366l-11.256-0.003 
                        c-2.906,0.239-5.22-0.931-7.172-2.918c-1.555-1.585-3.001-3.277-4.5-4.914c-0.611-0.673-1.259-1.306-2.025-1.806  
                        c-1.534-0.996-2.867-0.692-3.748,0.909c-0.896,1.63-1.103,3.438-1.185,5.255c-0.125,2.655-0.925,3.348-3.588,3.471 
                        c-5.69,0.268-11.091-0.596-16.108-3.463c-4.429-2.53-7.854-6.104-10.838-10.146c-5.816-7.883-10.27-16.536-14.27-25.437 
                        c-0.901-2.005-0.242-3.078,1.967-3.119c3.676-0.073,7.351-0.063,11.022-0.004c1.496,0.023,2.485,0.879,3.058,2.289 
                        c1.985,4.885,4.421,9.533,7.471,13.843c0.813,1.147,1.643,2.292,2.823,3.103c1.304,0.896,2.298,0.601,2.913-0.854  
                        c0.393-0.928,0.563-1.914,0.647-2.906c0.292-3.396,0.327-6.792-0.177-10.175c-0.315-2.116-1.507-3.483-3.617-3.883  
                        c-1.074-0.204-0.917-0.602-0.395-1.215c0.906-1.062,1.76-1.718,3.456-1.718l12.721-0.002c2.006,0.392,2.452,1.292,2.725,3.311
                        l0.012,14.133c-0.021,0.782,0.391,3.098,1.795,3.61c1.123,0.371,1.868-0.53,2.54-1.244c3.048-3.235,5.22-7.056,7.167-11.009 
                        c0.857-1.743,1.6-3.549,2.32-5.356c0.533-1.337,1.367-1.995,2.875-1.971l12.246,0.013c0.36,0,0.729,0.004,1.086,0.063 
                        c2.062,0.355,2.627,1.243,1.99,3.257c-1.004,3.163-2.959,5.799-4.871,8.441c-2.043,2.825-4.224,5.557-6.252,8.396  
                        C72.411,49.38,72.561,50.688,74.869,52.943z"/>
                    </g>
                </g>
            </defs>
            <use xlink:href="#vk" transform="translate(0 0 94 94)" /> 
        </symbol>
 

        <symbol viewBox="0 0 512 512" id="youtube" xmlns="http://www.w3.org/2000/svg">
            <defs>
                <g id ='yb'>
                    <path d="m224.113281 303.960938 83.273438-47.960938-83.273438-47.960938zm0 0"/>
                    <path d="m475.074219 0h-438.148438c-20.394531 0-36.925781 16.53125-36.925781 
                    36.925781v438.148438c0 20.394531 16.53125 36.925781 36.925781 36.925781h438.148438c20.394531
                    0 36.925781-16.53125 36.925781-36.925781v-438.148438c0-20.394531-16.53125-36.925781-36.925781-36.925781zm-59.113281 
                    256.261719s0 51.917969-6.585938 76.953125c-3.691406 13.703125-14.496094 24.507812-28.199219 28.195312-25.035156 
                    6.589844-125.175781 6.589844-125.175781 6.589844s-99.878906 0-125.175781-6.851562c-13.703125-3.6875-24.507813-14.496094-28.199219-28.199219-6.589844-24.769531-6.589844-76.949219-6.589844-76.949219s0-51.914062
                    6.589844-76.949219c3.6875-13.703125 14.757812-24.773437 28.199219-28.460937 25.035156-6.589844 125.175781-6.589844 125.175781-6.589844s100.140625 0 125.175781 6.851562c13.703125 3.6875 24.507813 14.496094 28.199219 28.199219 6.851562 25.035157 6.585938 77.210938 6.585938 77.210938zm0 0"/>
                </g>
            </defs>
            <use xlink:href="#yb" transform="translate(0 0 512 512)" /> 
        </symbol>

        <symbol viewBox="0 0 512 512" id="dota-logo" xmlns="http://www.w3.org/2000/svg">
            <defs>
                <g id='dt'>
	                <g>
		                <path d="M512,0h-63.541L422,13.229L395.541,0H271l-30,15h-82.918l-30-15H0v241l15,30v82.918l-15,30V512h256l26.459-13.229
                        L308.918,512H512V308.918l-13.229-26.459L512,256V0z M135,422l-45-45v-90l135,135H135z M407,422h-60l-38.885-45.694l-8.019-32.568
                        l-30.866-13.126L256,315.066L90,120l30-30l136,102.225L422,317L407,422z M422,225L287,90h90l45,45V225z"/>
	                </g>
                </g>
            </defs>
            <use xlink:href="#dt" transform="translate(0 0 512 512)" /> 
        </symbol>

        <symbol viewBox="0 0 129 129" id="down-arrow" xmlns="http://www.w3.org/2000/svg">
            <defs>
                <g id='da'>
	               <g>
                        <path d="m121.3,34.6c-1.6-1.6-4.2-1.6-5.8,0l-51,51.1-51.1-51.1c-1.6-1.6-4.2-1.6-5.8,0-1.6,1.6-1.6,4.2 0,5.8l53.9,53.9c0.8,0.8 1.8,1.2 2.9,1.2 1,0 2.1-0.4 2.9-1.2l53.9-53.9c1.7-1.6 1.7-4.2 0.1-5.8z"/>
                    </g>
                </g>
            </defs>
            <use xlink:href="#da" transform="translate(0 0 129 129)" /> 
        </symbol>

        <symbol viewBox="0 0 510 510" id="notification" xmlns="http://www.w3.org/2000/svg">
            <defs>
	             <g id="notifications">
		            <path d="M255,510c28.05,0,51-22.95,51-51H204C204,487.05,226.95,510,255,510z M420.75,357V216.75    c0-79.05-53.55-142.8-127.5-160.65V38.25C293.25,17.85,275.4,0,255,0c-20.4,0-38.25,17.85-38.25,38.25V56.1    c-73.95,17.85-127.5,81.6-127.5,160.65V357l-51,51v25.5h433.5V408L420.75,357z"/>
	            </g>
            </defs>
            <use xlink:href="#notifications" transform="translate(0 0 510 510)" /> 
        </symbol>

   <symbol viewBox="0 0 512 512" id="friends" xmlns="http://www.w3.org/2000/svg">
            <defs>
	             <g id="fr">
                    <g>
                        <g>
                            <path d="M155.327,57.142c-51.531,0-93.454,44.45-93.454,99.086c0,54.636,41.923,99.086,93.454,99.086s93.455-44.45,93.455-99.086
                            C248.782,101.592,206.859,57.142,155.327,57.142z"/>
                        </g>
                    </g>
                    <g>
                        <g>
                            <path d="M367.798,71.321c-0.211,0-0.425,0.001-0.636,0.002c-21.626,0.179-41.826,9.31-56.878,25.713 
                            c-14.788,16.113-22.829,37.37-22.644,59.854c0.186,22.484,8.577,43.605,23.628,59.473c15.17,15.991,35.265,24.773,56.651,24.773
                            c0.215,0,0.43-0.001,0.646-0.002c21.626-0.179,41.826-9.311,56.878-25.713c14.788-16.113,22.829-37.37,22.644-59.855
                            C447.702,108.972,411.747,71.321,367.798,71.321z"/>
                        </g>
                    </g>
                    <g>
                        <g>
                            <path d="M371.74,257.358h-7.76c-36.14,0-69.12,13.74-94.02,36.26c6.23,4.78,12.16,9.99,17.78,15.61
                            c16.58,16.58,29.6,35.9,38.7,57.42c8.2,19.38,12.88,39.8,13.97,60.83H512v-29.87C512,320.278,449.08,257.358,371.74,257.358z"/>
                        </g>
                    </g>
                    <g>
                        <g>
                            <path d="M310.35,427.478c-2.83-45.59-25.94-85.69-60.43-111.39c-25.09-18.7-56.21-29.77-89.92-29.77h-9.34
                            C67.45,286.319,0,353.768,0,436.978v17.88h310.65v-17.88C310.65,433.788,310.55,430.618,310.35,427.478z"/>
                        </g>
                    </g>
                </g>
            </defs>
            <use xlink:href="#fr" transform="translate(0 0 512 512)" /> 
        </symbol>


   <symbol viewBox="0 0 437.212 437.212" id="message" xmlns="http://www.w3.org/2000/svg">
            <defs>
	             <g id="ms">
                    <g>
			<path d="M404.812,41.206h-300c-18,0-32.4,14.8-32.4,32.4v186.4c0,18,14.8,32.4,32.4,32.4h206.8l46.8,47.2c2,2,4.4,3.2,7.2,3.2     c5.6,0,10.4-4.4,10.4-10.4v-40h28.8c18,0,32.4-14.8,32.4-32.4v-186.4C437.212,55.606,422.412,41.206,404.812,41.206z      M150.812,201.606c-16.4,0-30-13.6-30-30c0-16.4,13.6-30,30-30c16.4,0,30,13.6,30,30     C180.812,188.006,167.612,201.606,150.812,201.606z M256.012,201.606c-16.4,0-30-13.6-30-30c0-16.4,13.6-30,30-30     c16.4,0,30,13.6,30,30C286.012,188.006,272.412,201.606,256.012,201.606z M360.812,201.606c-16.4,0-30-13.6-30-30     c0-16.4,13.6-30,30-30c16.4,0,30,13.6,30,30C390.812,188.006,377.212,201.606,360.812,201.606z"/>
			<path d="M54.012,260.806v-63.6h-32.8c-11.6,0-21.2,9.6-21.2,21.2v122.4c-0.4,12.4,9.2,22,21.2,22h18.8v26.4     c0,3.6,3.2,6.8,6.8,6.8c2,0,3.6-0.8,4.8-2l30.8-30.8h136c11.6,0,21.2-9.6,21.2-21.2v-30.4h-134.8     C76.812,311.606,54.012,288.806,54.012,260.806z"/>
		</g>
                </g>
            </defs>
            <use xlink:href="#ms" transform="translate(0 0 437.212 437.212)" /> 
        </symbol>

        <symbol viewBox="0 0 258.75 258.75" id="user" xmlns="http://www.w3.org/2000/svg">
            <defs>
	             <g id="us">
                    <g>
	                    <circle cx="129.375" cy="60" r="60"/>
	                    <path d="M129.375,150c-60.061,0-108.75,48.689-108.75,108.75h217.5C238.125,198.689,189.436,150,129.375,150z"/>
                    </g>
                </g>
            </defs>
            <use xlink:href="#us" transform="translate(0 0 258.75 258.75)" /> 
        </symbol>
        <symbol viewBox="0 0 460.298 460.2975" id="home" xmlns="http://www.w3.org/2000/svg">
            <defs>
	             <g id="hm">
                    <g>
                        <path d="M230.149,120.939L65.986,256.274c0,0.191-0.048,0.472-0.144,0.855c-0.094,0.38-0.144,0.656-0.144,0.852v137.041    c0,4.948,1.809,9.236,5.426,12.847c3.616,3.613,7.898,5.431,12.847,5.431h109.63V303.664h73.097v109.64h109.629    c4.948,0,9.236-1.814,12.847-5.435c3.617-3.607,5.432-7.898,5.432-12.847V257.981c0-0.76-0.104-1.334-0.288-1.707L230.149,120.939    z"/>
                        <path d="M457.122,225.438L394.6,173.476V56.989c0-2.663-0.856-4.853-2.574-6.567c-1.704-1.712-3.894-2.568-6.563-2.568h-54.816    c-2.666,0-4.855,0.856-6.57,2.568c-1.711,1.714-2.566,3.905-2.566,6.567v55.673l-69.662-58.245    c-6.084-4.949-13.318-7.423-21.694-7.423c-8.375,0-15.608,2.474-21.698,7.423L3.172,225.438c-1.903,1.52-2.946,3.566-3.14,6.136    c-0.193,2.568,0.472,4.811,1.997,6.713l17.701,21.128c1.525,1.712,3.521,2.759,5.996,3.142c2.285,0.192,4.57-0.476,6.855-1.998    L230.149,95.817l197.57,164.741c1.526,1.328,3.521,1.991,5.996,1.991h0.858c2.471-0.376,4.463-1.43,5.996-3.138l17.703-21.125    c1.522-1.906,2.189-4.145,1.991-6.716C460.068,229.007,459.021,226.961,457.122,225.438z"/>
	                </g>
                </g>
            </defs>
            <use xlink:href="#hm" transform="translate(0 0 460.298 460.297)" /> 
        </symbol>


        <symbol viewBox="0 0 512.00001 512" id="league" xmlns="http://www.w3.org/2000/svg">
            <defs>
	             <g id="lg">
                   <g id="surface1">
                        <path d="M 497 36.953125 L 431.296875 36.953125 C 431.535156 29.675781 431.667969 22.355469 431.667969 15 C 431.667969 6.714844 424.949219 0 416.667969 0 L 95.335938 0 C 87.050781 0 80.335938 6.714844 80.335938 15 C 80.335938 22.355469 80.464844 29.675781 80.703125 36.953125 L 15 36.953125 C 6.714844 36.953125 0 43.667969 0 51.953125 C 0 119.164062 17.566406 182.574219 49.460938 230.507812 C 80.988281 277.894531 122.984375 305.074219 168.347656 307.71875 C 178.632812 318.910156 189.507812 328.035156 200.832031 334.996094 L 200.832031 401.664062 L 175.667969 401.664062 C 145.246094 401.664062 120.5 426.414062 120.5 456.832031 L 120.5 481.996094 L 119.433594 481.996094 C 111.148438 481.996094 104.433594 488.714844 104.433594 496.996094 C 104.433594 505.28125 111.148438 511.996094 119.433594 511.996094 L 392.566406 511.996094 C 400.851562 511.996094 407.566406 505.28125 407.566406 496.996094 C 407.566406 488.714844 400.851562 481.996094 392.566406 481.996094 L 391.5 481.996094 L 391.5 456.832031 C 391.5 426.414062 366.75 401.664062 336.332031 401.664062 L 311.167969 401.664062 L 311.167969 334.996094 C 322.492188 328.035156 333.363281 318.910156 343.648438 307.71875 C 389.015625 305.074219 431.007812 277.894531 462.539062 230.507812 C 494.433594 182.574219 512 119.164062 512 51.953125 C 512 43.667969 505.28125 36.953125 497 36.953125 Z M 74.4375 213.890625 C 48.128906 174.351562 32.671875 122.644531 30.316406 66.953125 L 82.378906 66.953125 C 87.789062 135.414062 103.859375 198.691406 128.976562 248.925781 C 132.976562 256.925781 137.160156 264.480469 141.5 271.601562 C 116.550781 262.179688 93.460938 242.484375 74.4375 213.890625 Z M 437.5625 213.890625 C 418.539062 242.484375 395.449219 262.179688 370.5 271.601562 C 374.84375 264.480469 379.023438 256.925781 383.023438 248.925781 C 408.140625 198.691406 424.207031 135.414062 429.621094 66.953125 L 481.683594 66.953125 C 479.328125 122.644531 463.871094 174.351562 437.5625 213.890625 Z M 437.5625 213.890625 " />
                    </g>
                </g>
            </defs>
            <use xlink:href="#lg" transform="translate(0 0 512.00001 512)" /> 
        </symbol>



        <symbol viewBox="0 0 512 512" id="bronze" xmlns="http://www.w3.org/2000/svg">
            <defs>
	             <g id="br">
                    <g>
                        <g>
                            <path d="M405.228,20.608c-4.824,0-9.792,0.624-14.752,1.848l3.816,15.528c30.248-7.424,56.624,15.592,56.624,44.32    c0,67.288-76.624,116.88-108.568,126.216l4.488,15.36c40.576-11.864,120.088-67.264,120.096-141.576    C466.932,48.28,439.252,20.608,405.228,20.608z"/>
                        </g>
                    </g>
                    <g>
                        <g>
                            <path d="M61.06,82.304c0-28.728,26.368-51.776,56.624-44.312l3.832-15.536c-40.032-9.84-76.448,21.008-76.448,59.848    c0,74.32,79.52,129.72,120.08,141.576l4.488-15.36C137.684,199.176,61.06,149.592,61.06,82.304z"/>
                        </g>
                    </g>
                    <g>
                        <g>
                            <path d="M283.74,297.8h-55.488c-4.416,0-8,3.576-8,8v30.36c0,2.408,1.096,4.704,2.976,6.224c1.432,1.16,3.208,1.776,5.024,1.776    c0.56,0,1.128-0.064,1.688-0.184c16.48-3.56,35.64-3.56,52.112,0c2.368,0.496,4.832-0.08,6.712-1.592    c1.88-1.52,2.976-3.8,2.976-6.224V305.8C291.74,301.376,288.164,297.8,283.74,297.8z M275.74,326.624    c-12.816-1.768-26.672-1.776-39.488,0.008V313.8v-0.008h39.488V326.624z"/>
                        </g>
                    </g>
                    <g>
                        <g>
                            <path d="M363.972,466.448H148.02c-4.416,0-8,3.576-8,8V504c0,4.424,3.584,8,8,8h215.952c4.424,0,8-3.576,8-8v-29.552    C371.972,470.024,368.396,466.448,363.972,466.448z M355.972,496H156.02v-13.552h199.952V496z"/>
                        </g>
                    </g>
                    <g>
                        <g>
                            <path d="M350.124,353.736H161.868c-4.416,0-8,3.576-8,8v112.712c0,4.424,3.584,8,8,8h188.256c4.416,0,8-3.584,8-8V361.736    C358.124,357.312,354.548,353.736,350.124,353.736z M342.124,466.448H169.868v-96.712h172.256V466.448z"/>
                        </g>
                    </g>
                    <g>
                        <g>
                            <path d="M318.132,385.728H193.868c-4.416,0-8,3.576-8,8v48.712c0,4.424,3.584,8,8,8h124.264c4.416,0,8-3.584,8-8v-48.712    C326.132,389.304,322.556,385.728,318.132,385.728z M310.132,434.44H201.868v-32.712h108.264V434.44z"/>
                        </g>
                    </g>
                    <g>
                        <g>
                            <path d="M396.988,4.024C394.428,1.432,391.02,0,387.388,0H124.612c-3.616,0-7.024,1.424-9.584,4c-2.56,2.584-3.96,6-3.944,9.632    c0.056,5.448,0.272,10.808,0.52,16.912c0.2,4.928,0.48,9.808,0.808,14.664c3.992,59.248,17.192,113.384,38.184,156.56    c3.088,6.352,6.424,12.576,9.904,18.48c16.032,27.224,34.392,46.752,54.592,58.056c2.12,1.184,4.64,1.336,6.848,0.456    c1.856,0.064,3.952,0.064,6.304,0.064h61.936c0.904,0.336,1.856,0.504,2.808,0.504c1.344,0,2.688-0.336,3.912-1.016    c20.192-11.296,38.56-30.832,54.592-58.056c3.456-5.896,6.784-12.112,9.888-18.472c21.008-43.2,34.208-97.344,38.192-156.568    c0.32-4.856,0.6-9.72,0.8-14.688c0.232-5.592,0.456-11.192,0.512-16.856C400.932,10.04,399.548,6.616,396.988,4.024z     M384.388,29.888c-0.208,4.792-0.464,9.528-0.784,14.248c-3.84,57.192-16.504,109.28-36.616,150.64    c-2.912,5.984-6.04,11.832-9.288,17.36c-13.648,23.176-29.504,40.632-46.008,50.68h-63.44c0.016,0.008-5.376,0-7.944,0    c-16.512-10.056-32.368-27.504-46.008-50.688c-3.264-5.544-6.392-11.376-9.296-17.352c-20.104-41.344-32.76-93.432-36.616-150.64    c-0.312-4.712-0.584-9.456-0.808-14.968c-0.176-4.376-0.36-8.752-0.44-13.168h257.704    C384.764,20.664,384.572,25.272,384.388,29.888z"/>
                        </g>
                    </g>
                    <g>
                        <g>
                            <path d="M352.108,34.64c-0.128,2.512-0.272,4.88-0.432,7.224c-3.336,49.568-14.616,96.288-31.768,131.552    c-2.4,4.928-5.008,9.808-7.752,14.48c-9.48,16.096-20.104,28.592-30.712,36.144l9.28,13.04    c12.432-8.848,24.6-23.048,35.224-41.064c2.96-5.048,5.776-10.296,8.352-15.6c18.024-37.08,29.864-85.904,33.344-137.496    c0.16-2.44,0.304-4.864,0.448-7.448L352.108,34.64z"/>
                        </g>
                    </g>
                    <g>
                        <g>
                            <path d="M283.74,262.824h-55.848c-13.464,0-14.8,26.104-14.8,26.368c0,0.248,1.568,24.616,15.16,24.616h55.856    c13.232,0,14.8-24.368,14.8-24.616C298.908,288.928,297.572,262.824,283.74,262.824z M280.82,297.808h-49.648    c-1.04-2.624-2.056-6.984-2.088-8.608c0.024-1.944,1.184-7.288,2.328-10.376h49.168c1.152,3.088,2.304,8.432,2.328,10.36    C282.884,290.824,281.86,295.192,280.82,297.808z"/>
                        </g>
                    </g>
                    <g>
                        <g>
                            <path d="M285.428,328.336c-18.688-4.024-40.168-4.04-58.864,0c-26.504,5.736-42.328,18.224-42.328,33.392c0,4.424,3.584,8,8,8    h127.52c4.416,0,8-3.576,8-8C327.756,346.552,311.932,334.072,285.428,328.336z M205.884,353.728    c4.944-3.72,13.056-7.368,24.056-9.752c16.488-3.56,35.648-3.56,52.104,0c11.008,2.384,19.12,6.032,24.064,9.752H205.884z"/>
                        </g>
                    </g>
                </g>
            </defs>
            <use xlink:href="#br" transform="translate(0 0 512 512)" /> 
        </symbol>


        <symbol viewBox="0 0 611.998 611.998" id="tournaments" xmlns="http://www.w3.org/2000/svg">
            <defs>
	             <g id="tr">
                     <g>
	                    <path d="M558.966,36.611c-2.262-12.984-13.533-22.459-26.712-22.459H473.47C468.872,5.722,459.928,0,449.649,0H162.344   c-10.278,0-19.223,5.722-23.82,14.153H79.745c-13.178,0-24.448,9.477-26.712,22.457c-0.321,1.844-7.711,45.702,6.423,93.81   c10.212,34.762,33.037,76.665,83.579,102.794c-8.308,20.734-18.496,43.587-30.985,68.809c-2.581,5.21-1.713,11.467,2.187,15.78   c38.368,42.408,81.894,70.991,128.204,84.608c-0.087,1.015-0.155,2.037-0.155,3.074v1.795c0,13.716,7.699,25.625,19.006,31.667   c1.725,22.022-3.296,58.062-15.082,86.621h-51.267c-11.385,0-20.613,9.229-20.613,20.613v45.204   c0,11.385,9.227,20.613,20.613,20.613h222.109c11.385,0,20.613-9.229,20.613-20.613v-45.204c0-11.384-9.227-20.613-20.613-20.613   h-51.269c-11.788-28.559-16.814-64.596-15.098-86.616C361.998,432.913,369.7,421,369.7,407.28v-1.795   c0-1.037-0.068-2.057-0.155-3.072c46.311-13.617,89.837-42.2,128.204-84.61c3.9-4.313,4.768-10.57,2.187-15.78   c-12.476-25.197-22.682-48.043-31.018-68.791c50.566-26.127,73.4-68.04,83.617-102.811   C566.674,82.314,559.289,38.455,558.966,36.611z M111.966,116.729c-5.469-17.839-6.892-35.252-6.924-48.347h33.486   c4.598,8.431,13.54,14.149,23.818,14.149c4.749,0,9.209-1.228,13.091-3.373c0.027,0.235,0.058,0.462,0.085,0.699   c2.308,20.922,0.428,53.222-14.084,101.367C137.231,166.639,120.657,145.081,111.966,116.729z M221.779,336.822   c-21.079,5.466-43.713-13.414-55.346-28.844c-2.849-3.777-5.362-7.562-4.125-12.537c0.725-2.921,2.817-5.341,4.453-7.808   c7.139-10.773,13.056-22.442,18.26-34.257c10.911-24.765,19.178-50.609,25.311-76.959c4.628-19.883,7.603-39.982,11.447-60.017   c5.331,33.095,3.995,67.329-2.574,100.134c-2.533,12.655-5.974,25.096-10.242,37.27c-5.312,15.154-11.889,31.074-20.959,44.699   C197.425,312.758,208.225,326.51,221.779,336.822z M500.029,116.728c-8.705,28.378-25.303,49.954-49.548,64.541   c-14.463-47.836-16.517-80.384-13.912-102.103c3.879,2.143,8.335,3.366,13.079,3.366c10.278,0,19.221-5.72,23.818-14.149h33.489   C506.923,81.488,505.499,98.895,500.029,116.728z"/>
                    </g>
                </g>
            </defs>
            <use xlink:href="#tr" transform="translate(0 0 611.998 611.998)" /> 
        </symbol>

        <symbol viewBox="0 0 122.699 122.699" id="team" xmlns="http://www.w3.org/2000/svg">
            <defs>
	             <g id="tm">
                    <g>
                        <circle cx="19.5" cy="12.2" r="12.1"/>
                        <path d="M6,66.699h1.2v24c0,3.301,2.7,6,6,6h12.6c3.3,0,6-2.699,6-6V89.3c-1.1-2.101-1.8-4.5-1.8-7v-31.4c0-6.1,3.7-11.4,9-13.7   v-2.4c0-3.3-2.7-6-6-6H6c-3.3,0-6,2.7-6,6v25.9C0,64,2.6,66.699,6,66.699z"/>
                        <circle cx="103.3" cy="12.2" r="12.1"/>
                        <path d="M83.699,34.7v2.4c5.301,2.3,9,7.6,9,13.7v31.3c0,2.5-0.6,4.9-1.799,7v1.4c0,3.3,2.699,6,6,6h12.6c3.3,0,6-2.7,6-6v-24   h1.199c3.301,0,6-2.7,6-6V34.7c0-3.3-2.699-6-6-6h-27C86.4,28.7,83.699,31.399,83.699,34.7z"/>
                        <path d="M39.1,50.899L39.1,50.899v9.8v21.6c0,3.3,2.7,6,6,6h2.3v28.3c0,3.3,2.7,6,6,6h16.1c3.3,0,6-2.7,6-6v-28.4h2.3   c3.3,0,6-2.699,6-6V60.7v-9.8l0,0c0-3.3-2.7-6-6-6H45.1C41.7,44.899,39.1,47.6,39.1,50.899z"/>
                        <circle cx="61.4" cy="26" r="13.9"/>
                    </g>
                </g>
            </defs>
            <use xlink:href="#tm" transform="translate(0 0 122.699 122.699)" /> 
        </symbol>

        <symbol viewBox="0 0 958.752 958.752" id="puzle" xmlns="http://www.w3.org/2000/svg">
            <defs>
	             <g id="pz">
                    <g>
                        <g>
                            <path d="M449.253,958.752v-0.531V832.572c-16.291,7.475-34.135,11.438-52.273,11.438c-17.053,0-33.599-3.375-49.179-10.03     c-15.033-6.423-28.497-15.601-40.015-27.279c-23.725-24.055-36.533-55.922-36.065-89.728     c0.453-32.706,13.529-63.528,36.821-86.788c23.291-23.261,54.13-36.296,86.842-36.707c0.534-0.009,1.063-0.011,1.597-0.011     c18.14,0,35.982,3.965,52.274,11.438l0.122-125.12H299.506c3.631-6.34,8.994-14.236,15.154-23.226     c11.912-17.385,20.783-37.496,20.497-60.273c-0.646-51.367-42.547-93.327-93.914-94.038c-0.448-0.006-0.903-0.009-1.35-0.009     c-52.62-0.004-95.271,42.652-95.271,95.271c0,22.269,8.737,41.944,20.445,58.973c5.693,8.28,11.58,16.957,15.213,23.302H40.411     c-22.091,0-40,17.909-40,40v398.965c0,22.092,17.909,40,40,40L449.253,958.752L449.253,958.752z"/>
                            <path d="M832.692,508.965c7.474,16.291,11.438,34.135,11.438,52.273c0,33.463-13.029,64.922-36.688,88.582     c-23.66,23.66-55.119,36.688-88.582,36.688c-0.583,0-1.177-0.004-1.767-0.012c-32.707-0.453-63.527-13.529-86.789-36.82     c-23.26-23.291-36.296-54.131-36.707-86.838c-0.233-18.711,3.729-37.108,11.423-53.875h-95.644h-15h-15.141l0.018,150.16     c-5.298-3.033-15.108-9.637-24.136-15.863c-16.723-11.537-36.252-19.793-58.14-19.793c-0.408,0-0.813,0.002-1.224,0.008     c-51.367,0.646-93.326,42.548-94.038,93.914c-0.244,17.599,4.289,34.119,12.378,48.354c16.382,28.824,47.36,48.268,82.884,48.268     c21.888,0,40.968-8.93,58.136-19.793c10.578-6.692,18.84-12.832,24.138-15.865v0.705v179.164h0.122h15h15h408.843     c22.092,0,40-17.909,40-40V508.965H832.692z"/>
                            <path d="M918.34,0H479.375v183.766c0,0,16.088-13.928,21.23-17.577c16.507-13.723,37.721-21.979,60.863-21.979     c53.066,0,95.999,43.386,95.264,96.622c-0.711,51.366-42.671,93.268-94.038,93.913c-0.408,0.005-0.818,0.008-1.227,0.008     c-23.145,0-44.356-8.255-60.863-21.979c-5.145-3.648-21.229-17.576-21.229-17.576v183.768h30h149.87     c-1.389,2.841-9.421,15.021-15.986,24.294c-11.921,16.836-19.943,36.914-19.665,59.205c0.646,51.365,42.548,93.324,93.914,94.037     c0.448,0.006,0.902,0.01,1.352,0.01c24.636,0,47.087-9.352,63.999-24.694c19.21-17.431,31.271-42.595,31.271-70.578     c0-21.832-8.228-41.308-19.7-58.017c-7.307-10.643-12.829-18.817-15.786-23.966c-0.059-0.1-0.113-0.192-0.171-0.292h177.133     h2.735v-17.018V40C958.34,17.909,940.432,0,918.34,0z"/>
                        </g>
	                </g>
                </g>
            </defs>
            <use xlink:href="#pz" transform="translate(0 0 958.752 958.752)" /> 
        </symbol>

        <symbol viewBox="0 0 300 300" id="telegram" xmlns="http://www.w3.org/2000/svg">
            <defs>
	             <g id="tl">
                   <g id="XMLID_496_">
	                    <path id="XMLID_497_" d="M5.299,144.645l69.126,25.8l26.756,86.047c1.712,5.511,8.451,7.548,12.924,3.891l38.532-31.412   c4.039-3.291,9.792-3.455,14.013-0.391l69.498,50.457c4.785,3.478,11.564,0.856,12.764-4.926L299.823,29.22   c1.31-6.316-4.896-11.585-10.91-9.259L5.218,129.402C-1.783,132.102-1.722,142.014,5.299,144.645z M96.869,156.711l135.098-83.207   c2.428-1.491,4.926,1.792,2.841,3.726L123.313,180.87c-3.919,3.648-6.447,8.53-7.163,13.829l-3.798,28.146   c-0.503,3.758-5.782,4.131-6.819,0.494l-14.607-51.325C89.253,166.16,91.691,159.907,96.869,156.711z"/>
                    </g>
                </g>
            </defs>
            <use xlink:href="#tl" transform="translate(0 0 300 300)" /> 
        </symbol>


        <symbol viewBox="0 0 14 14" id="sms" xmlns="http://www.w3.org/2000/svg">
            <defs>
	             <g id="tms">
                    <g>
                        <path  d="M7,9L5.268,7.484l-4.952,4.245C0.496,11.896,0.739,12,1.007,12h11.986    c0.267,0,0.509-0.104,0.688-0.271L8.732,7.484L7,9z"/>
                        <path  d="M13.684,2.271C13.504,2.103,13.262,2,12.993,2H1.007C0.74,2,0.498,2.104,0.318,2.273L7,8    L13.684,2.271z"/>
                        <polygon  points="0,2.878 0,11.186 4.833,7.079   "/>
                        <polygon  points="9.167,7.079 14,11.186 14,2.875   "/>
	                </g>
                </g>
            </defs>
            <use xlink:href="#tms" transform="translate(0 0 14 14)" /> 
        </symbol>

        <symbol viewBox="0 0 512 512" id="pin" xmlns="http://www.w3.org/2000/svg">
            <defs>
	             <g id="pn">
                    <g>
                        <path d="M256,0C161.896,0,85.333,76.563,85.333,170.667c0,28.25,7.063,56.26,20.49,81.104L246.667,506.5    c1.875,3.396,5.448,5.5,9.333,5.5s7.458-2.104,9.333-5.5l140.896-254.813c13.375-24.76,20.438-52.771,20.438-81.021    C426.667,76.563,350.104,0,256,0z M256,256c-47.052,0-85.333-38.281-85.333-85.333c0-47.052,38.281-85.333,85.333-85.333    s85.333,38.281,85.333,85.333C341.333,217.719,303.052,256,256,256z"/>
                    </g>
                </g>
            </defs>
            <use xlink:href="#pn" transform="translate(0 0 512 512)" /> 
        </symbol>

        <symbol viewBox="0 0 528.899 528.899" id="pen" xmlns="http://www.w3.org/2000/svg">
            <defs>
	             <g id="pt">
                  <g>
                        <path d="M328.883,89.125l107.59,107.589l-272.34,272.34L56.604,361.465L328.883,89.125z M518.113,63.177l-47.981-47.981
                            c-18.543-18.543-48.653-18.543-67.259,0l-45.961,45.961l107.59,107.59l53.611-53.611
                            C532.495,100.753,532.495,77.559,518.113,63.177z M0.3,512.69c-1.958,8.812,5.998,16.708,14.811,14.565l119.891-29.069
                            L27.473,390.597L0.3,512.69z"/>
                    </g>
                </g>
            </defs>
            <use xlink:href="#pt" transform="translate(0 0 528.899 528.899)" /> 
        </symbol>

         <symbol viewBox="0 0 493.447 493.447" id="podiom" xmlns="http://www.w3.org/2000/svg">
            <defs>
	             <g id="ptd">
                     <g>
                        <g>
                            <path d="M190.561,299.603v45.846l-110.637-0.017v148.015h333.598v-118.08l-110.4,0.009v-75.763h0.014     M159.709,452.745h-50.003l0,0v-9.988l9.118-8.232c15.388-13.785,22.88-21.707,23.097-29.938c0-5.742-3.467-10.301-11.598-10.301    c-6.072,0-11.394,3.047-15.08,5.862l-4.671-11.833c5.323-4.022,13.561-7.274,23.111-7.274c15.946,0,24.734,9.327,24.734,22.141    c0,11.818-8.571,21.259-18.783,30.373l-6.494,5.423v0.222h26.575v13.552h-0.007v-0.007H159.709z M353.59,440.115h-6.721v-11.833    h6.395c5.529-0.101,12.586-2.174,12.586-8.127c0-4.208-3.473-7.365-10.422-7.365c-5.75,0-11.824,2.48-14.74,4.223l-3.371-11.938    c4.223-2.713,12.689-5.314,21.813-5.314c15.07,0,23.424,7.929,23.424,17.574c0,7.475-4.223,13.353-12.91,16.366v0.222    c8.471,1.535,15.318,7.93,15.318,17.12c-0.016,12.492-10.967,21.612-28.885,21.612c-9.102,0-16.811-2.392-20.916-4.996    l3.354-12.363c2.939,1.52,9.66,4.337,16.385,4.337c8.574,0,12.895-4.132,12.895-9.435    C367.786,443.258,360.844,440.115,353.59,440.115z M252.446,393.868L252.446,393.868H236.48v-55.894h-0.204l-13.463,6.41    l-2.712-12.389l18.658-8.666h13.687V393.868z"/>
                            <circle  cx="129.74" cy="85.726" r="29.547"/>
                            <path d="M137.096,116.993l-7.356,7.402l-7.125-7.479c-0.038,0-0.053,0-0.076,0.008    c-2.18,1.462-5.142,2.916-8.473,4.223l17.921,30.232h1.701l-3.63-6.146l14.746-25.125    C142.331,118.781,139.765,117.642,137.096,116.993z"/>
                            <circle  cx="129.74" cy="162.902" r="4.06"/>
                            <path d="M192.137,204.93c-6.642-45.194-16.603-65.41-40.231-80.832l-15.874,27.355v5.909h-1.337    c1.546,1.378,2.548,3.365,2.548,5.601c0,4.146-3.376,7.512-7.512,7.512c-4.147,0-7.519-3.361-7.519-7.512    c0-2.232,1.002-4.223,2.548-5.601h-1.694v-5.058l-16.911-28.543c-8.268,2.248-16.861,3.144-21.107,0.904    c-6.08-3.229-10.197-10.931-12.209-22.899c-1.052-6.251-6.968-10.44-13.223-9.4c-6.243,1.052-10.451,6.969-9.403,13.224    c3.266,19.363,11.378,32.609,24.104,39.354c5.855,3.104,12.429,4.646,19.562,4.646c1.826-0.009,3.718-0.168,5.62-0.373v58.688    c0,3.521,0.786,6.968,2.123,9.906l-0.061,110.377c0,7.489,6.069,13.561,13.557,13.561c7.489,0,13.554-6.068,13.554-13.561    l-0.007-94.251l1.921,0.01v94.241c0,7.489,6.076,13.561,13.558,13.561c7.496,0,13.557-6.068,13.557-13.561l-0.034-110.326    c1.462-3.04,2.305-8.462,2.305-12.143v-37.322c3.668,9.16,6.805,21.745,9.463,39.867c0.832,5.692,5.731,9.808,11.332,9.808    c0.551,0,1.128-0.037,1.686-0.125C188.729,217.036,193.056,211.203,192.137,204.93z"/>
                            <polygon  points="134.008,153.419 133.176,153.419 133.057,153.499 125.095,153.499 125.095,155.328     134.008,155.328   "/>
                            <path  d="M363.715,85.732c16.32,0,29.545,13.23,29.545,29.552c0,16.314-13.225,29.545-29.545,29.545    c-16.322,0-29.545-13.229-29.545-29.545C334.17,98.962,347.393,85.732,363.715,85.732z"/>
                            <path  d="M370.914,146.474c-0.021-0.008-0.037-0.008-0.074-0.008l-7.125,7.481l-7.359-7.409    c-2.674,0.66-5.227,1.788-7.701,3.117l14.75,25.11l-3.631,6.146h1.701l17.924-30.232    C376.057,149.39,373.104,147.928,370.914,146.474z"/>
                            <path  d="M363.707,188.395c2.23,0,4.057,1.815,4.057,4.055c0,2.234-1.824,4.053-4.057,4.053    s-4.059-1.815-4.059-4.053C359.653,190.21,361.475,188.395,363.707,188.395z"/>
                            <path d="M433.842,121.914c-6.27-1.052-12.168,3.146-13.217,9.396c-2.021,11.973-6.139,19.668-12.213,22.896    c-4.246,2.248-12.838,1.352-21.107-0.896l-16.914,28.535v5.063h-1.729c1.549,1.374,2.553,3.367,2.553,5.598    c0,4.146-3.365,7.515-7.514,7.515c-4.141,0-7.506-3.365-7.506-7.515c0-2.229,0.988-4.224,2.545-5.598h-1.336v-5.913    l-15.875-27.354c-23.637,15.415-33.594,35.64-40.238,80.828c-0.91,6.271,3.41,12.097,9.689,13.016    c0.557,0.092,1.125,0.127,1.688,0.127c5.576,0,10.488-4.097,11.332-9.813c2.645-18.114,5.789-30.695,9.465-39.856v37.32    c0,3.683,0.637,9.239,2.104,12.281c0,0.117-0.039,110.188-0.039,110.188c0,7.487,6.076,13.551,13.551,13.551    c7.488,0,13.564-6.063,13.564-13.551v-94.24l1.922-0.004l-0.008,94.245c0,7.487,6.066,13.55,13.559,13.55    c7.48,0,13.549-6.063,13.549-13.55l-0.055-110.185c1.338-2.934,2.318-8.639,2.318-12.159v-56.625    c1.898,0.201,3.799,0.365,5.645,0.365c7.123,0,13.693-1.55,19.561-4.66c12.721-6.737,20.832-19.979,24.1-39.354    C444.278,128.883,440.084,122.963,433.842,121.914z"/>
                            <polygon  points="368.356,183.052 360.381,183.052 360.274,182.964 359.44,182.964 359.44,184.878     368.356,184.878   "/>
                            <g>
                                <path d="M246.796,61.042c16.859,0,30.514-13.666,30.514-30.521C277.31,13.664,263.652,0,246.796,0     c-16.853,0-30.517,13.663-30.518,30.521C216.278,47.378,229.942,61.042,246.796,61.042z"/>
                                <circle  cx="247.715" cy="116.384" r="4.835"/>
                                <path  d="M254.394,62.813l-7.605,7.652l-7.356-7.732c-0.042,0-0.057,0-0.08,0.019     c-1.648,0.392-5.07,2.537-9.923,4.554l20.942,35.355h2.037l-4.333-7.318l16.851-28.702     C259.794,64.828,255.769,63.147,254.394,62.813z"/>
                                <path d="M321.042,37.931c-6.391-1.068-12.549,3.264-13.656,9.715     c-1.896,11.286-5.453,18.619-10.559,21.794c-5.193,3.432-14.035,2.342-22.359,0.155l-19.246,33.153v7.041h-1.594     c1.852,1.641,3.061,4.014,3.061,6.672c0,4.948-4.027,8.959-8.956,8.959c-4.949,0-8.962-4.022-8.962-8.959     c0-2.666,1.2-5.031,3.042-6.672h-2.044v-6.027l-19.867-33.528c-6.042,1.166-13.231,1.26-21.286-1.354     c-5.111-3.171-8.666-10.512-10.565-21.79c-1.086-6.456-7.208-10.797-13.656-9.714c-6.456,1.09-10.8,7.2-9.714,13.655     c3.103,18.544,10.128,30.951,21.418,37.984c7.079,4.389,14.864,6.014,22.812,6.014c2.21,0,4.436-0.154,6.649-0.386v62.06     c0,3.98,0.452,7.213,2.092,10.472l0.008,113.745c0,7.748,6.277,14.014,14.01,14.014c7.728,0,14.005-6.281,13.998-14.014     l-0.007-97.413l1.99,0.009v97.404c0,7.748,6.272,14.014,14.002,14.014c7.738,0,13.998-6.266,13.998-14.014l-0.107-113.801     c1.262-2.927,2.492-6.933,2.492-10.401V94.993c2.826,0.35,5.652,0.604,8.463,0.604c7.943,0,15.736-1.634,22.83-6.02     c11.287-7.01,18.307-19.438,21.436-37.983C331.851,45.135,327.497,39.021,321.042,37.931z"/>
                                <polygon  points="252.792,105.078 251.804,105.078 251.656,105.175 242.178,105.175 242.178,107.355      252.792,107.355    "/>
                            </g>
                        </g>
                    </g>
                </g>
            </defs>
            <use xlink:href="#ptd" transform="translate(0 0 493.447 493.447)" /> 
        </symbol>

        <symbol viewBox="0 0 896.025 896.025" id="setting" xmlns="http://www.w3.org/2000/svg">
            <defs>
	             <g id="srt">
                    <g>
                        <path id="settings_1_" d="M863.24,382.771l-88.759-14.807c-6.451-26.374-15.857-51.585-28.107-75.099l56.821-70.452   c12.085-14.889,11.536-36.312-1.205-50.682l-35.301-39.729c-12.796-14.355-34.016-17.391-50.202-7.165l-75.906,47.716   c-33.386-23.326-71.204-40.551-112-50.546l-14.85-89.235c-3.116-18.895-19.467-32.759-38.661-32.759h-53.198   c-19.155,0-35.561,13.864-38.608,32.759l-14.931,89.263c-33.729,8.258-65.353,21.588-94.213,39.144l-72.188-51.518   c-15.558-11.115-36.927-9.377-50.504,4.171l-37.583,37.61c-13.548,13.577-15.286,34.946-4.142,50.504l51.638,72.326   c-17.391,28.642-30.584,60.086-38.841,93.515l-89.743,14.985C13.891,385.888,0,402.24,0,421.435v53.156   c0,19.193,13.891,35.547,32.757,38.663l89.743,14.985c6.781,27.508,16.625,53.784,29.709,78.147L95.647,676.44   c-12.044,14.875-11.538,36.312,1.203,50.669l35.274,39.73c12.797,14.382,34.028,17.363,50.216,7.163l77-48.37   c32.581,22.285,69.44,38.664,108.993,48.37l14.931,89.25c3.048,18.896,19.453,32.76,38.608,32.76h53.198   c19.194,0,35.545-13.863,38.661-32.759l14.875-89.25c33.308-8.147,64.531-21.245,93.134-38.5l75.196,53.705   c15.53,11.155,36.915,9.405,50.478-4.186l37.598-37.597c13.532-13.536,15.365-34.893,4.127-50.479l-53.536-75.059   c17.441-28.738,30.704-60.238,38.909-93.816l88.758-14.82c18.921-3.116,32.756-19.469,32.756-38.663v-53.156   C895.998,402.24,882.163,385.888,863.24,382.771z M449.42,616.013c-92.764,0-168-75.25-168-168c0-92.764,75.236-168,168-168   c92.748,0,167.998,75.236,167.998,168C617.418,540.763,542.168,616.013,449.42,616.013z"/>
                    </g>
                </g>
            </defs>
            <use xlink:href="#srt" transform="translate(0 0 896.025 896.025)" /> 
        </symbol>

        <symbol viewBox="0 0 18 18" id="search" xmlns="http://www.w3.org/2000/svg">
            <defs>
            	 <g id="rdch">
                    <path d="M17.845,17.844 C17.651,18.038 17.335,18.036 17.139,17.839
                    L12.471,13.171 C9.511,15.763 5.023,15.678 2.201,12.856 C-0.741,9.914 -0.741,5.143 2.201,2.201
                    C5.143,-0.742 9.914,-0.742 12.857,2.201 C15.679,5.023 15.764,9.511 13.172,12.470 L17.840,17.138
                    C18.037,17.335 18.039,17.650 17.845,17.844 ZM12.157,2.900 C9.601,0.343 5.457,0.343 2.901,2.900
                    C0.345,5.456 0.345,9.601 2.901,12.156 C5.456,14.712 9.599,14.712 12.155,12.158 C12.156,12.157
                    12.155,12.156 12.156,12.156 C12.157,12.155 12.158,12.155 12.159,12.155 C14.713,9.599 14.713,5.455 12.157,2.900 Z"/>  
                 </g>
            </defs>
            <use xlink:href="#rdch" transform="translate(0 0 18 18)" /> 
        </symbol>

             <symbol viewBox="0 0 480.1 480.1" id="earth" xmlns="http://www.w3.org/2000/svg">
            <defs>
            	 <g id="globus">
                  	<path d="M240.135,0.05C144.085,0.036,57.277,57.289,19.472,145.586l-2.992,0.992l1.16,3.48
                        c-49.776,122.766,9.393,262.639,132.159,312.415c28.673,11.626,59.324,17.594,90.265,17.577
                        c132.548,0.02,240.016-107.416,240.036-239.964S372.684,0.069,240.135,0.05z M428.388,361.054l-12.324-12.316V320.05
                        c0.014-1.238-0.26-2.462-0.8-3.576l-31.2-62.312V224.05c0-2.674-1.335-5.172-3.56-6.656l-24-16
                        c-1.881-1.256-4.206-1.657-6.4-1.104l-29.392,7.344l-49.368-21.184l-6.792-47.584l18.824-18.816h40.408l13.6,20.44
                        c1.228,1.838,3.163,3.087,5.344,3.448l48,8c1.286,0.216,2.604,0.111,3.84-0.304l44.208-14.736
                        C475.855,208.053,471.889,293.634,428.388,361.054z M395.392,78.882l-13.008,8.672l-36.264-7.256l-23.528-7.832
                        c-1.44-0.489-2.99-0.551-4.464-0.176l-29.744,7.432l-13.04-4.344l9.664-19.328h27.056c1.241,0.001,2.465-0.286,3.576-0.84
                        l27.68-13.84C362.382,51.32,379.918,63.952,395.392,78.882z M152.44,33.914l19.2,12.8c0.944,0.628,2.01,1.048,3.128,1.232
                        l38.768,6.464l-3.784,11.32l-20.2,6.744c-1.809,0.602-3.344,1.83-4.328,3.464l-22.976,38.288l-36.904,22.144l-54.4,7.768 
                        c-3.943,0.557-6.875,3.93-6.88,7.912v24c0,2.122,0.844,4.156,2.344,5.656l13.656,13.656v13.744l-33.28-22.192l-12.072-36.216
                        C57.68,98.218,99.777,56.458,152.44,33.914z M129.664,296.21l-36.16-7.24l-13.44-26.808v-18.8l29.808-29.808l11.032,22.072
                        c1.355,2.712,4.128,4.425,7.16,4.424h51.472l21.672,36.12c1.446,2.407,4.048,3.879,6.856,3.88h22.24l-5.6,28.056l-30.288,30.288
                        c-1.503,1.499-2.349,3.533-2.352,5.656v20l-28.8,21.6c-2.014,1.511-3.2,3.882-3.2,6.4v28.896l-9.952-3.296l-14.048-35.136V304.05
                        C136.065,300.248,133.389,296.97,129.664,296.21z M105.616,419.191C30.187,362.602-1.712,264.826,25.832,174.642l6.648,19.936
                        c0.56,1.687,1.666,3.14,3.144,4.128l39.88,26.584l-9.096,9.104c-1.5,1.5-2.344,3.534-2.344,5.656v24
                        c-0.001,1.241,0.286,2.465,0.84,3.576l16,32c1.108,2.21,3.175,3.784,5.6,4.264l33.6,6.712v73.448 
                        c-0.001,1.016,0.192,2.024,0.568,2.968l16,40c0.876,2.185,2.67,3.874,4.904,4.616l24,8c0.802,0.272,1.642,0.412,2.488,0.416
                        c4.418,0,8-3.582,8-8v-36l28.8-21.6c2.014-1.511,3.2-3.882,3.2-6.4v-20.688l29.656-29.656c1.115-1.117,1.875-2.54,2.184-4.088
                        l8-40c0.866-4.333-1.944-8.547-6.277-9.413c-0.515-0.103-1.038-0.155-1.563-0.155h-27.472l-21.672-36.12
                        c-1.446-2.407-4.048-3.879-6.856-3.88h-51.056l-13.744-27.576c-1.151-2.302-3.339-3.91-5.88-4.32
                        c-2.54-0.439-5.133,0.399-6.936,2.24l-10.384,10.344V192.05c0-2.122-0.844-4.156-2.344-5.656l-13.656-13.656v-13.752l49.136-7.016
                        c1.055-0.153,2.07-0.515,2.984-1.064l40-24c1.122-0.674,2.062-1.614,2.736-2.736l22.48-37.464l21.192-7.072 
                        c2.393-0.785,4.271-2.662,5.056-5.056l8-24c1.386-4.195-0.891-8.72-5.086-10.106c-0.387-0.128-0.784-0.226-1.186-0.294
                        l-46.304-7.72l-8.136-5.424c50.343-16.386,104.869-14.358,153.856,5.72l-14.616,7.296h-30.112c-3.047-0.017-5.838,1.699-7.2,4.424
                        l-16,32c-1.971,3.954-0.364,8.758,3.59,10.729c0.337,0.168,0.685,0.312,1.042,0.431l24,8c1.44,0.489,2.99,0.551,4.464,0.176
                        l29.744-7.432l21.792,7.256c0.312,0.112,0.633,0.198,0.96,0.256l40,8c2.08,0.424,4.244-0.002,6.008-1.184l18.208-12.144
                        c8.961,9.981,17.014,20.741,24.064,32.152l-39.36,13.12l-42.616-7.104l-14.08-21.12c-1.476-2.213-3.956-3.547-6.616-3.56h-48
                        c-2.122,0-4.156,0.844-5.656,2.344l-24,24c-1.782,1.781-2.621,4.298-2.264,6.792l8,56c0.403,2.769,2.223,5.126,4.8,6.216l56,24
                        c1.604,0.695,3.394,0.838,5.088,0.408l28.568-7.144l17.464,11.664v27.72c-0.014,1.238,0.26,2.462,0.8,3.576l31.2,62.312v30.112
                        c0,2.122,0.844,4.156,2.344,5.656l16.736,16.744C344.921,473.383,204.549,493.415,105.616,419.191z"/>
	 
                 </g>
            </defs>
            <use xlink:href="#globus" transform="translate(0 0 480.1 480.1)" /> 
        </symbol>


             <symbol viewBox="0 0 60 60" id="money" xmlns="http://www.w3.org/2000/svg">
            <defs>
            	 <g id="mny">
                  <path d="M59.989,21c-0.099-1.711-2.134-3.048-6.204-4.068c0.137-0.3,0.214-0.612,0.215-0.936V9h-0.017C53.625,3.172,29.743,3,27,3
                    S0.375,3.172,0.017,9H0v0.13v0v0l0,6.869c0.005,1.9,2.457,3.387,6.105,4.494c-0.05,0.166-0.08,0.335-0.09,0.507H6v0.13v0v0l0,6.857
                    C2.07,28.999,0.107,30.317,0.01,32H0v0.13v0v0l0,6.869c0.003,1.323,1.196,2.445,3.148,3.38c-0.074,0.203-0.12,0.41-0.133,0.622H3
                    v0.13v0v0l0,6.869c0.008,3.326,7.497,5.391,15.818,6.355c0.061,0.012,0.117,0.037,0.182,0.037c0.019,0,0.035-0.01,0.054-0.011
                    c1.604,0.181,3.234,0.322,4.847,0.423c0.034,0.004,0.064,0.02,0.099,0.02c0.019,0,0.034-0.01,0.052-0.011
                    C26.1,56.937,28.115,57,30,57c1.885,0,3.9-0.063,5.948-0.188c0.018,0.001,0.034,0.011,0.052,0.011c0.035,0,0.065-0.017,0.099-0.02
                    c1.613-0.101,3.243-0.241,4.847-0.423C40.965,56.38,40.981,56.39,41,56.39c0.065,0,0.121-0.025,0.182-0.037
                    c8.321-0.964,15.809-3.03,15.818-6.357V43h-0.016c-0.07-1.226-1.115-2.249-3.179-3.104c0.126-0.289,0.195-0.589,0.195-0.9V32.46 
                    c3.59-1.104,5.995-2.581,6-4.464V21H59.989z M51.892,39.321l-0.341,0.299C51.026,40.083,50.151,40.55,49,41v-4.768
                    c1.189-0.414,2.201-0.873,3-1.376v4.138C52,39.097,51.962,39.207,51.892,39.321z M29.526,43.968
                    c-0.146,0.004-0.293,0.006-0.44,0.009c-0.357,0.007-0.723,0.009-1.085,0.012v-4.995c0.275-0.003,0.55-0.007,0.825-0.012
                    c0.053-0.001,0.106-0.002,0.159-0.003c1.007-0.019,2.014-0.05,3.016-0.096v4.993c-0.214,0.011-0.429,0.021-0.646,0.03
                    C30.753,43.933,30.145,43.953,29.526,43.968z M25.159,43.982c-0.458-0.008-0.914-0.019-1.367-0.033
                    c-0.056-0.002-0.112-0.004-0.168-0.006c-0.545-0.018-1.086-0.041-1.623-0.067v-4.992c1.002,0.047,2.009,0.078,3.016,0.096
                    c0.053,0.001,0.106,0.002,0.158,0.003c0.275,0.005,0.55,0.009,0.825,0.012v4.998c-0.194-0.002-0.388-0.002-0.581-0.005
                    C25.331,43.986,25.246,43.983,25.159,43.982z M7.097,41.702C7.064,41.692,7.033,41.683,7,41.674v-4.831 
                    c0.934,0.252,1.938,0.482,3,0.691v4.881c-0.918-0.195-1.765-0.4-2.536-0.61C7.342,41.77,7.216,41.737,7.097,41.702z M28.175,49.983
                    c0.275,0.005,0.55,0.009,0.825,0.012v4.999c-1.382-0.013-2.716-0.053-4-0.116v-4.993c1.002,0.047,2.009,0.078,3.016,0.096 
                    C28.069,49.981,28.122,49.982,28.175,49.983z M31.984,49.98c1.007-0.019,2.014-0.05,3.016-0.096v4.993 
                    c-1.284,0.063-2.618,0.103-4,0.116v-4.999c0.275-0.003,0.55-0.007,0.825-0.012C31.878,49.982,31.931,49.981,31.984,49.98z 
                    M40,49.528v4.966c-0.961,0.101-1.961,0.19-3,0.263v-4.987C38.014,49.704,39.016,49.623,40,49.528z M42,49.312 
                    c1.031-0.124,2.032-0.265,3-0.422v4.91c-0.942,0.166-1.943,0.319-3,0.458V49.312z M47,48.533c1.062-0.209,2.066-0.439,3-0.691v4.831
                    c-0.891,0.257-1.894,0.506-3,0.741V48.533z M13,48.533v4.881c-1.106-0.235-2.109-0.484-3-0.741v-4.831  
                    C10.934,48.094,11.938,48.325,13,48.533z M15,48.891c0.968,0.157,1.969,0.298,3,0.422v4.946c-1.057-0.139-2.058-0.292-3-0.458  
                    V48.891z M20,49.528c0.984,0.095,1.986,0.176,3,0.243v4.987c-1.039-0.073-2.039-0.162-3-0.263V49.528z M17.519,43.548
                    c-0.102-0.01-0.203-0.021-0.304-0.031c-0.072-0.007-0.143-0.016-0.215-0.023v-4.965c0.984,0.095,1.986,0.176,3,0.243v4.983 
                    C19.16,43.695,18.33,43.627,17.519,43.548z M15,38.312v4.946c-1.057-0.139-2.058-0.292-3-0.458v-4.91 
                    C12.968,38.047,13.969,38.189,15,38.312z M34.666,43.708c-0.22,0.017-0.442,0.034-0.666,0.05v-4.987 
                    c1.014-0.067,2.016-0.147,3-0.243v4.966c-0.618,0.065-1.25,0.126-1.899,0.179C34.956,43.686,34.811,43.697,34.666,43.708z 
                     M39,43.258v-4.946c1.031-0.124,2.032-0.265,3-0.422v4.91C41.058,42.966,40.057,43.12,39,43.258z M44,37.533 
                    c1.062-0.209,2.066-0.439,3-0.691v4.831c-0.891,0.257-1.894,0.506-3,0.741V37.533z M30.325,32.965
                    c-0.752-0.019-1.487-0.048-2.209-0.083c-0.039-0.002-0.078-0.004-0.116-0.005v-4.993c1.002,0.047,2.009,0.078,3.016,0.096  
                    c0.053,0.001,0.106,0.002,0.158,0.003c0.275,0.005,0.55,0.009,0.825,0.012v4.993c-0.487-0.005-0.978-0.007-1.453-0.018
                    C30.473,32.968,30.398,32.967,30.325,32.965z M7,18.674v-4.831c0.934,0.252,1.938,0.482,3,0.691v4.881  
                    c-0.123-0.026-0.25-0.052-0.37-0.078c-0.532-0.117-1.051-0.239-1.547-0.368C7.705,18.872,7.346,18.773,7,18.674z M25.175,15.983 
                    c0.275,0.005,0.55,0.009,0.825,0.012v4.993c-1.346-0.013-2.684-0.048-4-0.114v-4.989c1.002,0.047,2.009,0.078,3.016,0.096 
                    C25.069,15.981,25.122,15.982,25.175,15.983z M28.984,15.98c1.007-0.019,2.014-0.05,3.016-0.096v4.989  
                    c-0.17,0.008-0.333,0.02-0.504,0.028c-0.014,0.001-0.028,0.001-0.043,0.002c-0.671,0.03-1.355,0.052-2.048,0.068
                    c-0.108,0.003-0.216,0.004-0.324,0.007c-0.356,0.007-0.72,0.008-1.081,0.012v-4.995c0.275-0.003,0.55-0.007,0.825-0.012 
                    C28.878,15.982,28.931,15.981,28.984,15.98z M51.771,16.482l-0.028-0.006l-0.364,0.283C50.851,17.17,50.04,17.586,49,17.988v-4.757 
                    c1.189-0.414,2.201-0.873,3-1.376v4.138C52,16.145,51.92,16.309,51.771,16.482z M39,20.252v-4.94c1.031-0.124,2.032-0.265,3-0.422 
                    v4.902C41.052,19.96,40.054,20.114,39,20.252z M44,19.407v-4.873c1.062-0.209,2.066-0.439,3-0.691v4.82 
                    C46.104,18.924,45.095,19.173,44,19.407z M37,15.528v4.96c-0.966,0.102-1.966,0.191-3,0.265v-4.982 
                    C35.014,15.704,36.016,15.623,37,15.528z M17,20.49v-4.962c0.984,0.095,1.986,0.176,3,0.243v4.978 
                    C18.982,20.676,17.978,20.593,17,20.49z M15,15.312v4.941c-0.198-0.026-0.404-0.047-0.6-0.074c-0.128-0.018-0.25-0.037-0.376-0.055
                    c-0.578-0.083-1.143-0.172-1.697-0.265C12.216,19.84,12.109,19.82,12,19.801v-4.91C12.968,15.047,13.969,15.189,15,15.312z
                    M25.752,32.739c-0.135-0.01-0.271-0.02-0.405-0.03c-0.64-0.05-1.265-0.105-1.875-0.166c-0.131-0.013-0.262-0.027-0.392-0.04
                    C23.053,32.5,23.027,32.496,23,32.494v-4.966c0.984,0.095,1.986,0.176,3,0.243v4.984C25.919,32.749,25.833,32.745,25.752,32.739z  
                    M19.145,31.992c-0.396-0.063-0.768-0.131-1.145-0.197v-4.904c0.968,0.157,1.969,0.298,3,0.422v4.946 
                    c-0.612-0.081-1.211-0.165-1.786-0.255C19.191,31.999,19.168,31.995,19.145,31.992z M16,26.533v4.873 
                    c-1.105-0.237-2.107-0.489-3-0.751v-4.813C13.934,26.094,14.938,26.325,16,26.533z M11,25.231v4.751 
                    c-1.572-0.607-2.586-1.227-2.916-1.779l-0.067-0.112C8.011,28.06,8.001,28.027,8,27.996l0-4.141 
                    C8.799,24.358,9.811,24.817,11,25.231z M34.984,27.98c1.007-0.019,2.014-0.05,3.016-0.096v4.988c-1.314,0.065-2.65,0.101-4,0.115
                    v-4.992c0.275-0.003,0.55-0.007,0.825-0.012C34.878,27.982,34.931,27.981,34.984,27.98z M47.907,31.817  
                    c-0.439,0.076-0.882,0.151-1.337,0.22c-0.261,0.04-0.528,0.078-0.796,0.116c-0.253,0.036-0.516,0.067-0.773,0.1v-4.941
                    c1.031-0.124,2.032-0.265,3-0.422v4.91C47.969,31.806,47.938,31.812,47.907,31.817z M41.136,32.671
                    c-0.373,0.031-0.758,0.051-1.136,0.078v-4.978c1.014-0.067,2.016-0.147,3-0.243v4.961c-0.581,0.061-1.161,0.122-1.758,0.172 
                    C41.206,32.664,41.172,32.668,41.136,32.671z M52.564,30.796c-0.498,0.139-1.025,0.269-1.563,0.396  
                    c-0.249,0.058-0.503,0.116-0.763,0.172c-0.077,0.017-0.159,0.032-0.237,0.049v-4.879c1.062-0.209,2.066-0.439,3-0.691v4.831
                    C52.857,30.714,52.712,30.755,52.564,30.796z M57.989,21.065c-0.092,0.679-1.631,1.582-4.378,2.431l0,0 
                    c-3.538,1.093-9.074,2.094-16.09,2.404c-0.359,0.015-0.717,0.03-1.083,0.042c-0.299,0.01-0.599,0.019-0.904,0.027
                    C34.706,25.987,33.866,26,33,26s-1.706-0.013-2.534-0.032c-0.304-0.007-0.604-0.017-0.904-0.027  
                    c-0.367-0.011-0.725-0.027-1.083-0.042c-7.016-0.31-12.553-1.311-16.09-2.404l0,0c-2.725-0.842-4.261-1.738-4.375-2.414
                     c0.005-0.019,0.005-0.035,0.017-0.059c0.068,0.017,0.144,0.031,0.213,0.048c0.391,0.093,0.792,0.183,1.2,0.269  
                    c1.987,0.428,4.189,0.779,6.535,1.047c0.008,0,0.014,0.004,0.021,0.004c0.002,0,0.004-0.001,0.005-0.001 
                    c1.598,0.182,3.256,0.325,4.958,0.426c0.013,0,0.024,0.007,0.037,0.007c0.007,0,0.012-0.004,0.019-0.004 
                    c1.225,0.072,2.466,0.125,3.722,0.153C25.51,22.99,26.265,23,27,23c0.525,0,1.063-0.006,1.606-0.016 
                    c7.266-0.112,14-0.976,18.686-2.315c0.216-0.061,0.427-0.124,0.635-0.187c0.127-0.039,0.257-0.077,0.38-0.116 
                    c0.362-0.116,0.709-0.235,1.044-0.359c0.058-0.022,0.113-0.044,0.171-0.066c0.283-0.107,0.555-0.218,0.815-0.331 
                    c0.075-0.033,0.152-0.065,0.225-0.098c0.277-0.125,0.545-0.253,0.793-0.386c0.112-0.059,0.209-0.12,0.314-0.18 
                    c0.12-0.069,0.24-0.139,0.351-0.21c0.063-0.04,0.138-0.078,0.198-0.118C56.695,19.589,57.875,20.651,57.989,21.065z M27,5  
                    c16.489,0,24.829,2.596,24.985,4.086c-0.121,0.676-1.656,1.569-4.374,2.409l0,0c-3.538,1.093-9.074,2.094-16.09,2.404 
                    c-0.359,0.015-0.717,0.03-1.083,0.042c-0.299,0.01-0.599,0.019-0.904,0.027C28.706,13.987,27.866,14,27,14s-1.706-0.013-2.534-0.032 
                    c-0.304-0.007-0.604-0.017-0.904-0.027c-0.367-0.011-0.725-0.027-1.083-0.042c-7.016-0.31-12.553-1.311-16.09-2.404l0,0 
                    c-2.719-0.84-4.253-1.733-4.374-2.409C2.171,7.596,10.511,5,27,5z M2,15.996l0-4.141c0.799,0.503,1.811,0.962,3,1.376v4.788  
                    C3.055,17.29,2.002,16.559,2,15.996z M6.844,29.835c0.015,0.016,0.038,0.03,0.053,0.046c1.369,1.382,4.204,2.468,7.733,3.278 
                    c0.081,0.019,0.167,0.037,0.249,0.056c0.259,0.058,0.522,0.115,0.788,0.17c3.241,0.69,7.11,1.189,11.325,1.436 
                    c0.003,0,0.005,0.001,0.007,0.001c0.002,0,0.003-0.001,0.004-0.001c1.354,0.079,2.739,0.134,4.153,0.158 
                    C31.782,34.992,32.398,35,33,35c0.69,0,1.398-0.008,2.118-0.025c1.308-0.027,2.597-0.081,3.868-0.155
                    c0.005,0,0.009,0.003,0.014,0.003c0.009,0,0.016-0.005,0.025-0.005c4.226-0.249,8.191-0.753,11.544-1.478 
                    c-0.726,0.38-1.72,0.773-2.958,1.156l0,0c-3.735,1.154-9.7,2.205-17.281,2.449c-0.225,0.007-0.447,0.015-0.675,0.021 
                    c-0.245,0.006-0.494,0.01-0.743,0.015C28.283,36.991,27.65,37,27,37c-0.866,0-1.706-0.013-2.534-0.032 
                    c-0.304-0.007-0.604-0.017-0.904-0.027c-0.367-0.011-0.725-0.027-1.083-0.042c-7.016-0.31-12.553-1.311-16.09-2.404l0,0 
                    c-2.75-0.85-4.289-1.754-4.378-2.433C2.122,31.686,3.133,30.745,6.844,29.835z M2,38.996l0-4.141c0.799,0.503,1.811,0.962,3,1.376 
                    v4.769l-0.571-0.222L4.417,40.79C2.847,40.139,2.002,39.5,2,38.996z M5,49.996l0-4.141c0.799,0.503,1.811,0.962,3,1.376v4.788 
                    C6.055,51.29,5.002,50.559,5,49.996z M52,52.019v-4.787c1.189-0.414,2.201-0.873,3-1.376v4.138 
                    C54.999,50.557,53.945,51.289,52,52.019z M54.987,43.077c-0.109,0.677-1.645,1.575-4.376,2.419l0,0 
                    c-3.538,1.093-9.074,2.094-16.09,2.404c-0.359,0.015-0.717,0.03-1.083,0.042c-0.299,0.01-0.599,0.019-0.904,0.027
                    C31.706,47.987,30.866,48,30,48c-0.866,0-1.707-0.013-2.536-0.032c-0.301-0.007-0.598-0.017-0.895-0.027  
                    c-0.369-0.012-0.729-0.027-1.09-0.042c-7.016-0.31-12.552-1.311-16.09-2.404l0,0c-2.645-0.817-4.173-1.685-4.365-2.355 
                    c0.298,0.104,0.607,0.205,0.924,0.304c0.032,0.01,0.064,0.02,0.096,0.029c0.27,0.083,0.546,0.163,0.829,0.241
                    c0.107,0.03,0.215,0.06,0.324,0.089c0.16,0.043,0.324,0.084,0.488,0.126c3.642,0.933,8.291,1.594,13.31,1.891
                    c0.002,0,0.003,0.001,0.005,0.001c0.001,0,0.002-0.001,0.003-0.001c1.55,0.092,3.133,0.149,4.733,0.168
                    C26.162,45.996,26.585,46,27,46c0.551,0,1.115-0.007,1.686-0.017c1.459-0.024,2.899-0.078,4.307-0.162 
                    c0.003,0,0.005,0.002,0.008,0.002c0.005,0,0.008-0.003,0.013-0.003c1.715-0.103,3.375-0.25,4.97-0.433 
                    c0.006,0,0.011,0.003,0.017,0.003c0.022,0,0.04-0.011,0.062-0.013c1.776-0.205,3.46-0.457,5.023-0.75 
                    c0.322-0.059,0.639-0.12,0.953-0.183c0.07-0.014,0.14-0.028,0.21-0.043c2.953-0.606,5.509-1.391,7.263-2.364 
                    c0.096-0.052,0.186-0.106,0.277-0.159c0.111-0.066,0.217-0.133,0.32-0.201c0.096-0.062,0.207-0.122,0.295-0.185
                    C54.378,42.196,54.922,42.826,54.987,43.077z M55,30.019v-4.787c1.189-0.414,2.201-0.873,3-1.376v4.138 
                    C57.999,28.557,56.945,29.289,55,30.019z" />
                 </g>
            </defs>
            <use xlink:href="#mny" transform="translate(0 0 60 60)" /> 
        </symbol>


    </svg>



<svg xmlns="http://www.w3.org/2000/svg" xmlns:xlink="http://www.w3.org/1999/xlink" version="1.1" id="Capa_1" x="0px" y="0px" viewBox="0 0 512 512" style="enable-background:new 0 0 512 512;" xml:space="preserve">
<g>
	<g>
		<path d="M512,0h-63.541L422,13.229L395.541,0H271l-30,15h-82.918l-30-15H0v241l15,30v82.918l-15,30V512h256l26.459-13.229    L308.918,512H512V308.918l-13.229-26.459L512,256V0z M135,422l-45-45v-90l135,135H135z M407,422h-60l-38.885-45.694l-8.019-32.568    l-30.866-13.126L256,315.066L90,120l30-30l136,102.225L422,317L407,422z M422,225L287,90h90l45,45V225z"/>
	</g>

</svg>
